<svg width="48" height="48" viewBox="0 0 48 48" fill="none" xmlns="http://www.w3.org/2000/svg">
<path d="M14 23C9.02944 23 5 18.9706 5 14C5 9.02944 9.02944 5 14 5C18.9706 5 23 9.02944 23 14C23 18.9706 18.9706 23 14 23ZM14 43C9.02944 43 5 38.9706 5 34C5 29.0294 9.02944 25 14 25C18.9706 25 23 29.0294 23 34C23 38.9706 18.9706 43 14 43ZM34 23C29.0294 23 25 18.9706 25 14C25 9.02944 29.0294 5 34 5C38.9706 5 43 9.02944 43 14C43 18.9706 38.9706 23 34 23ZM34 43C29.0294 43 25 38.9706 25 34C25 29.0294 29.0294 25 34 25C38.9706 25 43 29.0294 43 34C43 38.9706 38.9706 43 34 43ZM14 19C16.7614 19 19 16.7614 19 14C19 11.2386 16.7614 9 14 9C11.2386 9 9 11.2386 9 14C9 16.7614 11.2386 19 14 19ZM14 39C16.7614 39 19 36.7614 19 34C19 31.2386 16.7614 29 14 29C11.2386 29 9 31.2386 9 34C9 36.7614 11.2386 39 14 39ZM34 19C36.7614 19 39 16.7614 39 14C39 11.2386 36.7614 9 34 9C31.2386 9 29 11.2386 29 14C29 16.7614 31.2386 19 34 19ZM34 39C36.7614 39 39 36.7614 39 34C39 31.2386 36.7614 29 34 29C31.2386 29 29 31.2386 29 34C29 36.7614 31.2386 39 34 39Z" fill="#00CAFF"/>
</svg>
