<svg width="48" height="48" viewBox="0 0 48 48" fill="none" xmlns="http://www.w3.org/2000/svg">
<path d="M5 14C5 18.9706 9.02944 23 14 23C18.9706 23 23 18.9706 23 14C23 9.02944 18.9706 5 14 5C9.02944 5 5 9.02944 5 14ZM5 34C5 38.9706 9.02944 43 14 43C18.9706 43 23 38.9706 23 34C23 29.0294 18.9706 25 14 25C9.02944 25 5 29.0294 5 34ZM25 34C25 38.9706 29.0294 43 34 43C38.9706 43 43 38.9706 43 34C43 29.0294 38.9706 25 34 25C29.0294 25 25 29.0294 25 34ZM19 14C19 16.7614 16.7614 19 14 19C11.2386 19 9 16.7614 9 14C9 11.2386 11.2386 9 14 9C16.7614 9 19 11.2386 19 14ZM19 34C19 36.7614 16.7614 39 14 39C11.2386 39 9 36.7614 9 34C9 31.2386 11.2386 29 14 29C16.7614 29 19 31.2386 19 34ZM39 34C39 36.7614 36.7614 39 34 39C31.2386 39 29 36.7614 29 34C29 31.2386 31.2386 29 34 29C36.7614 29 39 31.2386 39 34ZM35.0504 22.31L35.6052 21.0372C36.594 18.768 38.3752 16.9612 40.5976 15.9728L42.3068 15.2126C43.231 14.8016 43.231 13.4568 42.3068 13.0458L40.6934 12.3281C38.4136 11.3143 36.6004 9.44063 35.6286 7.09424L35.059 5.71891C34.6618 4.76037 33.338 4.76037 32.941 5.71891L32.3712 7.09424C31.3994 9.44063 29.5864 11.3143 27.3068 12.3281L25.6932 13.0458C24.769 13.4568 24.769 14.8016 25.6932 15.2126L27.4022 15.9728C29.6248 16.9612 31.4058 18.768 32.3948 21.0372L32.9496 22.31C33.3556 23.2418 34.6444 23.2418 35.0504 22.31Z" fill="#00FFDE"/>
</svg>
