<svg width="48" height="48" viewBox="0 0 48 48" fill="none" xmlns="http://www.w3.org/2000/svg">
<path d="M18 34C18 34 32 36 38 42H40C41.1046 42 42 41.1046 42 40V27.874C43.7252 27.43 45 25.8638 45 24C45 22.1362 43.7252 20.57 42 20.126V8C42 6.89544 41.1046 6 40 6H38C32 12 18 14 18 14H10C7.79086 14 6 15.7909 6 18V30C6 32.2092 7.79086 34 10 34H12L14 44H18V34ZM22 17.3224C23.3666 17.0292 25.055 16.6239 26.8786 16.0875C30.235 15.1003 34.5 13.5452 38 11.1492V36.8508C34.5 34.4548 30.235 32.8998 26.8786 31.9126C25.055 31.3762 23.3666 30.9708 22 30.6776V17.3224ZM10 18H18V30H10V18Z" fill="#FF0B55"/>
</svg>
